<svg width="156" height="42" viewBox="0 0 156 42" fill="none" xmlns="http://www.w3.org/2000/svg">
<g clip-path="url(#clip0_101_17)">
<path d="M12.6868 25.3109H7.37251C7.27818 25.3109 7.20147 25.2359 7.20147 25.1435V21.162C7.20147 21.103 7.26151 21.0643 7.31742 21.0866C8.13163 21.4113 9.01974 21.5908 9.95441 21.5908C13.7961 21.5908 16.9122 18.5503 16.9122 14.7941C16.9122 14.2272 16.8412 13.676 16.707 13.1482C16.6889 13.0771 16.7671 13.0177 16.832 13.0551C18.7483 14.1528 19.874 16.1096 19.874 18.6844C19.874 22.7752 17.0321 25.3109 12.6868 25.3109ZM9.81059 12.0611H10.0981C11.6234 12.1369 12.8224 13.4017 12.7524 14.9205C12.6895 16.2861 11.5513 17.4315 10.1552 17.5266C9.21318 17.591 8.36042 17.199 7.80649 16.5547C7.39372 16.0743 7.20147 15.4487 7.20147 14.8214V14.768C7.20147 14.1505 7.38757 13.5345 7.78914 13.0574C8.2749 12.4802 8.9973 12.1008 9.81059 12.0611ZM12.9368 8H9.95441C6.11366 8 3 11.0419 3 14.7941V28.5366C3 28.9977 3.38275 29.3714 3.85461 29.3714H12.9368C20.0929 29.3714 25 25.1568 25 18.6844C25 12.2116 20.0929 8 12.9368 8Z" fill="url(#paint0_linear_101_17)"/>
<path d="M35.2376 26.1678C33.9091 26.1678 32.7205 25.6015 31.6717 24.4688C30.6229 23.3361 30.0985 21.9307 30.0985 20.2526C30.0985 18.5746 30.6089 17.2042 31.6297 16.1414C32.6506 15.0646 33.8462 14.5263 35.2166 14.5263C36.587 14.5263 37.7057 15.0087 38.5727 15.9736V10.436H41.7191V26H38.5727V24.5107C37.6917 25.6154 36.58 26.1678 35.2376 26.1678ZM33.2658 20.3785C33.2658 21.2874 33.5385 22.0356 34.0839 22.6229C34.6293 23.1962 35.2655 23.4829 35.9927 23.4829C36.7199 23.4829 37.3351 23.1962 37.8386 22.6229C38.356 22.0356 38.6147 21.2874 38.6147 20.3785C38.6147 19.4556 38.356 18.6934 37.8386 18.0921C37.3351 17.4769 36.7129 17.1692 35.9717 17.1692C35.2306 17.1692 34.5943 17.4769 34.0629 18.0921C33.5315 18.7074 33.2658 19.4696 33.2658 20.3785ZM47.215 20.3575C47.215 21.2805 47.4737 22.0356 47.9911 22.6229C48.5225 23.1962 49.1938 23.4829 50.0048 23.4829C50.8299 23.4829 51.5011 23.1962 52.0185 22.6229C52.5499 22.0356 52.8156 21.2805 52.8156 20.3575C52.8156 19.4346 52.5499 18.6795 52.0185 18.0921C51.5011 17.5048 50.8299 17.2112 50.0048 17.2112C49.1938 17.2112 48.5225 17.5048 47.9911 18.0921C47.4737 18.6795 47.215 19.4346 47.215 20.3575ZM55.9829 20.3575C55.9829 21.9936 55.4166 23.371 54.2839 24.4897C53.1512 25.6085 51.7248 26.1678 50.0048 26.1678C48.2988 26.1678 46.8794 25.6085 45.7467 24.4897C44.6141 23.371 44.0477 21.9936 44.0477 20.3575C44.0477 18.7214 44.6141 17.344 45.7467 16.2253C46.8794 15.0926 48.2988 14.5263 50.0048 14.5263C51.7248 14.5263 53.1512 15.0926 54.2839 16.2253C55.4166 17.344 55.9829 18.7214 55.9829 20.3575ZM61.8697 16.9804V22.0356C61.8697 22.4691 61.9816 22.8117 62.2053 23.0634C62.4291 23.3011 62.6948 23.42 63.0024 23.42C63.5897 23.42 64.0862 23.1543 64.4917 22.6229L65.6663 24.8254C64.6875 25.7203 63.6527 26.1678 62.5619 26.1678C61.4852 26.1678 60.5692 25.8112 59.8141 25.098C59.0729 24.3849 58.7024 23.413 58.7024 22.1824V16.9804H57.3809V14.715H58.7024V11.338H61.8697V14.715H64.5966V16.9804H61.8697ZM75.8486 22.4971C75.8486 23.6018 75.4361 24.4897 74.611 25.161C73.7999 25.8322 72.7651 26.1678 71.5066 26.1678C70.6676 26.1678 69.7936 26.021 68.8846 25.7273C67.9757 25.4197 67.1576 24.9722 66.4305 24.3849L67.8149 22.4131C68.9895 23.3221 70.2411 23.7766 71.5695 23.7766C71.9751 23.7766 72.2967 23.6997 72.5344 23.5458C72.7721 23.378 72.891 23.1613 72.891 22.8956C72.891 22.6299 72.7232 22.3852 72.3876 22.1614C72.0659 21.9377 71.5905 21.7279 70.9612 21.5322C70.3459 21.3364 69.8705 21.1686 69.5349 21.0287C69.2132 20.8889 68.8427 20.6861 68.4232 20.4205C67.5701 19.8891 67.1436 19.106 67.1436 18.0712C67.1436 17.0224 67.5632 16.1694 68.4022 15.5121C69.2412 14.8549 70.325 14.5263 71.6534 14.5263C72.9819 14.5263 74.3104 14.9737 75.6388 15.8687L74.4642 17.9663C73.4853 17.2951 72.5064 16.9595 71.5276 16.9595C70.5627 16.9595 70.0802 17.2251 70.0802 17.7565C70.0802 18.0502 70.2341 18.2809 70.5417 18.4487C70.8494 18.6165 71.3598 18.8123 72.0729 19.0361C72.7861 19.2598 73.2895 19.4346 73.5832 19.5604C73.8908 19.6723 74.2544 19.8541 74.6739 20.1058C75.457 20.5813 75.8486 21.3783 75.8486 22.4971ZM89.1934 23.378C90.2422 23.378 91.1861 22.8536 92.0251 21.8049L93.892 23.9024C92.4377 25.4127 90.8645 26.1678 89.1724 26.1678C87.4804 26.1678 86.047 25.6364 84.8724 24.5736C83.7117 23.4969 83.1314 22.0985 83.1314 20.3785C83.1314 18.6445 83.7187 17.2391 84.8934 16.1624C86.082 15.0716 87.4874 14.5263 89.1095 14.5263C89.9206 14.5263 90.7386 14.6941 91.5637 15.0297C92.4027 15.3653 93.1368 15.8617 93.7661 16.519L92.13 18.6585C91.7664 18.225 91.319 17.8894 90.7876 17.6517C90.2702 17.4139 89.7528 17.2951 89.2354 17.2951C88.4103 17.2951 87.6971 17.5678 87.0958 18.1131C86.5085 18.6445 86.2149 19.3926 86.2149 20.3575C86.2149 21.3084 86.5085 22.0496 87.0958 22.581C87.6971 23.1123 88.3963 23.378 89.1934 23.378ZM98.3229 20.3575C98.3229 21.2805 98.5816 22.0356 99.099 22.6229C99.6304 23.1962 100.302 23.4829 101.113 23.4829C101.938 23.4829 102.609 23.1962 103.126 22.6229C103.658 22.0356 103.923 21.2805 103.923 20.3575C103.923 19.4346 103.658 18.6795 103.126 18.0921C102.609 17.5048 101.938 17.2112 101.113 17.2112C100.302 17.2112 99.6304 17.5048 99.099 18.0921C98.5816 18.6795 98.3229 19.4346 98.3229 20.3575ZM107.091 20.3575C107.091 21.9936 106.524 23.371 105.392 24.4897C104.259 25.6085 102.833 26.1678 101.113 26.1678C99.4067 26.1678 97.9873 25.6085 96.8546 24.4897C95.7219 23.371 95.1556 21.9936 95.1556 20.3575C95.1556 18.7214 95.7219 17.344 96.8546 16.2253C97.9873 15.0926 99.4067 14.5263 101.113 14.5263C102.833 14.5263 104.259 15.0926 105.392 16.2253C106.524 17.344 107.091 18.7214 107.091 20.3575ZM116.706 20.798V14.715H119.874V26H116.706V24.5107C115.923 25.6154 114.909 26.1678 113.665 26.1678C112.434 26.1678 111.4 25.7833 110.56 25.0141C109.721 24.231 109.302 23.0774 109.302 21.5531V14.715H112.469V20.8609C112.469 22.5949 113.106 23.4619 114.378 23.4619C115.007 23.4619 115.553 23.2382 116.014 22.7907C116.476 22.3292 116.706 21.665 116.706 20.798ZM128.781 17.4838C127.844 17.4838 127.145 17.8195 126.683 18.4907C126.222 19.1479 125.991 20.0219 125.991 21.1127V26H122.845V14.715H125.991V16.2043C126.397 15.7429 126.9 15.3513 127.502 15.0297C128.117 14.7081 128.739 14.5403 129.368 14.5263L129.389 17.4838H128.781ZM139.882 22.4971C139.882 23.6018 139.469 24.4897 138.644 25.161C137.833 25.8322 136.799 26.1678 135.54 26.1678C134.701 26.1678 133.827 26.021 132.918 25.7273C132.009 25.4197 131.191 24.9722 130.464 24.3849L131.848 22.4131C133.023 23.3221 134.274 23.7766 135.603 23.7766C136.008 23.7766 136.33 23.6997 136.568 23.5458C136.806 23.378 136.924 23.1613 136.924 22.8956C136.924 22.6299 136.757 22.3852 136.421 22.1614C136.099 21.9377 135.624 21.7279 134.995 21.5322C134.379 21.3364 133.904 21.1686 133.568 21.0287C133.247 20.8889 132.876 20.6861 132.457 20.4205C131.604 19.8891 131.177 19.106 131.177 18.0712C131.177 17.0224 131.597 16.1694 132.436 15.5121C133.275 14.8549 134.358 14.5263 135.687 14.5263C137.015 14.5263 138.344 14.9737 139.672 15.8687L138.498 17.9663C137.519 17.2951 136.54 16.9595 135.561 16.9595C134.596 16.9595 134.114 17.2251 134.114 17.7565C134.114 18.0502 134.267 18.2809 134.575 18.4487C134.883 18.6165 135.393 18.8123 136.106 19.0361C136.819 19.2598 137.323 19.4346 137.617 19.5604C137.924 19.6723 138.288 19.8541 138.707 20.1058C139.49 20.5813 139.882 21.3783 139.882 22.4971ZM152.059 24.3639C150.786 25.5665 149.29 26.1678 147.57 26.1678C145.864 26.1678 144.452 25.6434 143.333 24.5946C142.214 23.5319 141.655 22.1125 141.655 20.3365C141.655 18.5606 142.221 17.1482 143.354 16.0994C144.501 15.0507 145.85 14.5263 147.402 14.5263C148.955 14.5263 150.269 14.9947 151.346 15.9316C152.437 16.8686 152.982 18.1551 152.982 19.7912V21.4692H144.759C144.857 22.0845 145.179 22.5879 145.724 22.9795C146.27 23.371 146.885 23.5668 147.57 23.5668C148.675 23.5668 149.584 23.1962 150.297 22.4551L152.059 24.3639ZM149.794 19.2248C149.724 18.5536 149.472 18.0362 149.039 17.6726C148.605 17.309 148.074 17.1273 147.444 17.1273C146.829 17.1273 146.263 17.316 145.745 17.6936C145.228 18.0712 144.927 18.5816 144.843 19.2248H149.794Z" fill="black"/>
</g>
<defs>
<linearGradient id="paint0_linear_101_17" x1="19.3429" y1="29.3714" x2="5.2" y2="9.25714" gradientUnits="userSpaceOnUse">
<stop stop-color="#AFEAF1"/>
<stop offset="1" stop-color="#11E2FD"/>
</linearGradient>
<clipPath id="clip0_101_17">
<rect width="155.24" height="41.63" fill="white"/>
</clipPath>
</defs>
</svg>
