<?xml version="1.0" standalone="no"?>
<!DOCTYPE svg PUBLIC "-//W3C//DTD SVG 20010904//EN"
 "http://www.w3.org/TR/2001/REC-SVG-20010904/DTD/svg10.dtd">
<svg version="1.0" xmlns="http://www.w3.org/2000/svg"
 width="280.000000pt" height="60.000000pt" viewBox="0 0 280.000000 60.000000"
 preserveAspectRatio="xMidYMid meet">

<g transform="translate(0.000000,60.000000) scale(0.100000,-0.100000)"
fill="#000000" stroke="none">
<path d="M1729 461 c-69 -22 -99 -61 -99 -130 0 -28 7 -48 24 -68 22 -25 30
-28 89 -28 36 0 68 3 71 6 3 3 9 20 12 37 l7 32 -29 -15 c-39 -20 -77 -19 -97
3 -45 49 2 116 81 117 40 0 47 3 50 21 4 31 -48 43 -109 25z"/>
<path d="M781 363 c-7 -54 -14 -106 -17 -115 -5 -16 3 -18 71 -18 114 0 165
35 165 113 0 84 -38 116 -136 117 l-71 0 -12 -97z m139 37 c45 -45 6 -130 -60
-130 -34 0 -34 0 -19 87 10 57 13 63 35 63 13 0 33 -9 44 -20z"/>
<path d="M1273 421 c-3 -11 -13 -21 -24 -24 -22 -6 -26 -37 -4 -37 11 0 13
-10 8 -50 -7 -56 6 -80 42 -80 38 0 55 11 55 35 0 18 -4 22 -20 18 -16 -4 -20
0 -20 20 0 35 10 57 25 57 7 0 16 7 19 16 9 22 8 24 -9 24 -8 0 -15 9 -15 20
0 27 -50 28 -57 1z"/>
<path d="M1055 375 c-34 -33 -34 -93 -2 -123 76 -72 202 39 137 121 -30 37
-99 39 -135 2z m89 -38 c14 -22 -3 -51 -31 -55 -28 -4 -37 25 -18 55 18 26 33
26 49 0z"/>
<path d="M1392 388 c-19 -19 -14 -53 13 -78 33 -31 32 -44 -6 -36 -27 5 -30 3
-27 -17 7 -47 118 -27 118 22 0 8 -15 30 -32 49 l-33 34 35 -4 c29 -2 35 0 35
17 0 17 -8 21 -45 23 -26 2 -50 -2 -58 -10z"/>
<path d="M1876 369 c-76 -89 42 -193 125 -110 59 60 26 141 -58 141 -34 0 -46
-6 -67 -31z m82 -18 c8 -5 12 -21 10 -37 -2 -23 -9 -30 -30 -32 -25 -3 -28 0
-28 25 0 16 5 34 12 41 14 14 19 15 36 3z"/>
<path d="M2065 330 c-9 -91 -3 -98 84 -98 l69 0 6 51 c4 29 9 67 12 85 6 30 5
32 -24 32 -29 0 -30 -2 -37 -55 -4 -39 -12 -58 -25 -65 -31 -17 -33 -12 -27
55 l6 65 -28 0 c-28 0 -29 -1 -36 -70z"/>
<path d="M2286 378 c-3 -13 -9 -51 -14 -85 l-9 -63 28 0 c26 0 29 3 35 50 7
53 24 76 49 66 14 -5 35 20 35 43 0 15 -43 14 -58 -1 -9 -9 -12 -9 -12 0 0 7
-11 12 -25 12 -17 0 -26 -7 -29 -22z"/>
<path d="M2432 388 c-19 -19 -14 -53 13 -78 33 -31 32 -44 -6 -36 -27 5 -30 3
-27 -17 7 -47 118 -27 118 22 0 8 -15 30 -32 49 l-33 34 35 -4 c29 -2 35 0 35
17 0 17 -8 21 -45 23 -26 2 -50 -2 -58 -10z"/>
<path d="M2585 374 c-33 -35 -34 -95 -3 -124 37 -35 128 -24 128 16 0 8 -14
10 -43 7 -34 -4 -45 -2 -50 11 -5 13 2 16 48 16 l55 0 0 33 c0 43 -26 67 -74
67 -27 0 -43 -7 -61 -26z m85 -30 c0 -8 -10 -14 -25 -14 -27 0 -32 9 -14 27
14 14 39 6 39 -13z"/>
</g>
</svg>
