<?xml version="1.0" standalone="no"?>
<!DOCTYPE svg PUBLIC "-//W3C//DTD SVG 20010904//EN"
 "http://www.w3.org/TR/2001/REC-SVG-20010904/DTD/svg10.dtd">
<svg version="1.0" xmlns="http://www.w3.org/2000/svg"
 width="250.000000pt" height="60.000000pt" viewBox="0 0 250.000000 60.000000"
 preserveAspectRatio="xMidYMid meet">

<g transform="translate(0.000000,60.000000) scale(0.100000,-0.100000)"
fill="#000000" stroke="none">
<path d="M515 428 c-37 -221 -39 -208 48 -208 96 0 137 20 157 77 13 38 13 48
0 85 -19 55 -62 78 -142 78 -57 0 -57 0 -63 -32z m103 -19 c61 -21 65 -111 6
-138 -26 -12 -57 -15 -66 -6 -5 5 9 117 17 143 5 15 5 15 43 1z"/>
<path d="M1441 443 c-48 -25 -72 -62 -73 -111 -1 -79 47 -117 136 -109 51 4
66 17 66 55 0 22 -1 22 -30 7 -72 -37 -131 8 -104 80 10 25 62 47 102 43 34
-3 37 -1 37 22 0 23 -4 25 -50 28 -33 2 -62 -4 -84 -15z"/>
<path d="M1006 415 c-3 -8 -12 -15 -21 -15 -8 0 -15 -4 -15 -9 0 -5 -3 -16 -6
-25 -4 -11 -1 -16 11 -16 15 0 16 -6 11 -45 -10 -63 5 -87 51 -83 30 2 38 8
44 30 7 26 5 27 -17 22 -19 -5 -24 -2 -24 12 0 39 13 64 31 64 14 0 19 7 19
25 0 16 -6 25 -16 25 -10 0 -14 6 -10 15 4 11 -2 15 -23 15 -16 0 -31 -7 -35
-15z"/>
<path d="M808 385 c-35 -19 -48 -44 -48 -89 0 -43 37 -76 87 -76 73 0 120 94
76 149 -23 28 -80 36 -115 16z m68 -50 c12 -30 -5 -65 -30 -65 -31 0 -41 26
-21 56 18 27 43 31 51 9z"/>
<path d="M1143 390 c-37 -15 -39 -48 -4 -84 39 -40 39 -50 1 -42 -23 4 -32 2
-37 -10 -8 -20 13 -34 53 -34 66 0 86 45 42 95 -35 40 -33 50 6 36 24 -10 26
-8 26 13 0 32 -41 44 -87 26z"/>
<path d="M1654 390 c-32 -13 -64 -59 -64 -92 0 -42 40 -78 85 -78 47 0 71 14
91 51 38 75 -33 151 -112 119z m56 -55 c18 -22 -2 -65 -30 -65 -26 0 -36 24
-22 56 13 27 34 31 52 9z"/>
<path d="M1825 390 c-14 -22 -18 -140 -5 -155 15 -18 61 -20 78 -3 9 9 12 9
12 0 0 -7 13 -12 29 -12 27 0 29 3 35 53 4 28 10 69 13 90 6 38 5 39 -23 35
-26 -3 -30 -7 -37 -54 -8 -53 -36 -92 -57 -79 -6 4 -9 14 -6 23 2 10 7 38 11
65 6 45 5 47 -19 47 -14 0 -27 -4 -31 -10z"/>
<path d="M2035 368 c-3 -18 -9 -59 -14 -90 l-8 -58 28 0 c26 0 28 4 35 48 8
58 21 75 51 68 18 -5 24 -1 29 20 9 36 -10 53 -38 35 -16 -10 -23 -10 -26 -2
-2 6 -14 11 -27 11 -19 0 -25 -7 -30 -32z"/>
<path d="M2203 390 c-37 -15 -39 -48 -4 -84 39 -40 39 -50 1 -42 -23 4 -32 2
-37 -10 -8 -20 13 -34 53 -34 66 0 86 45 42 95 -35 40 -33 50 6 36 24 -10 26
-8 26 13 0 32 -41 44 -87 26z"/>
<path d="M2374 390 c-53 -21 -73 -111 -34 -150 33 -33 130 -26 130 10 0 15 -7
17 -43 13 -34 -4 -45 -2 -50 11 -5 13 2 16 48 16 l55 0 0 33 c0 38 -7 50 -37
66 -25 13 -40 13 -69 1z m54 -53 c3 -12 -4 -17 -22 -17 -28 0 -33 9 -14 28 15
15 32 10 36 -11z"/>
</g>
</svg>
